<svg width="310" height="332" viewBox="0 0 310 332" fill="none" xmlns="http://www.w3.org/2000/svg">
<g filter="url(#filter0_d_44_38)">
<path d="M103.625 65.75H82.0416C79.4873 65.75 77.4166 67.8207 77.4166 70.375V74.5697L87.9576 78.0833H97.709L108.25 74.5697V70.375C108.25 67.8207 106.179 65.75 103.625 65.75Z" fill="#F899CC"/>
<path d="M89.75 65.75V64.2083H95.9166V65.75H99V64.2083C98.998 62.5063 97.6187 61.1269 95.9166 61.125H89.75C88.0479 61.1269 86.6686 62.5063 86.6666 64.2083V65.75H89.75ZM87.9576 78.0833L77.4166 74.5696V84.25C77.4194 86.8032 79.4885 88.8722 82.0416 88.875H103.625C106.178 88.8722 108.247 86.8032 108.25 84.25V74.5696L97.709 78.0833H87.9576Z" fill="#ED017F"/>
<path d="M83.2653 128.764C85.5533 128.764 87.6653 127.774 89.1393 126.234L86.7853 124.122C85.9053 125.134 84.6513 125.816 83.2653 125.816C80.7353 125.816 78.5793 123.572 78.5793 120.932C78.5793 118.314 80.7353 116.07 83.2653 116.07C84.6513 116.07 85.9053 116.752 86.7853 117.764L89.1393 115.652C87.6653 114.09 85.5533 113.122 83.2653 113.122C78.9313 113.122 75.2353 116.686 75.2353 120.932C75.2353 125.178 78.9313 128.764 83.2653 128.764ZM96.6476 128.764C100.014 128.764 102.83 126.036 102.83 122.802C102.83 119.568 100.014 116.862 96.6476 116.862C93.2596 116.862 90.4216 119.568 90.4216 122.802C90.4216 126.036 93.2596 128.764 96.6476 128.764ZM96.6476 126.058C94.9316 126.058 93.5016 124.562 93.5016 122.802C93.5016 121.042 94.9316 119.568 96.6476 119.568C98.3416 119.568 99.7716 121.042 99.7716 122.802C99.7716 124.562 98.3416 126.058 96.6476 126.058ZM108.215 119.238V117.126H105.003V128.5H108.215V123.066C108.215 120.932 109.733 119.568 112.109 119.568V116.862C110.371 116.862 108.963 117.764 108.215 119.238ZM120.98 116.862C119.396 116.862 118.076 117.544 117.174 118.71V117.126H113.962V132.284H117.174V126.894C118.076 128.082 119.396 128.764 120.98 128.764C124.016 128.764 126.216 126.3 126.216 122.802C126.216 119.326 124.016 116.862 120.98 116.862ZM120.056 126.058C118.494 126.058 117.35 124.914 117.174 123.242V122.362C117.35 120.712 118.494 119.568 120.056 119.568C121.838 119.568 123.092 120.91 123.092 122.802C123.092 124.716 121.838 126.058 120.056 126.058ZM134.073 128.764C137.439 128.764 140.255 126.036 140.255 122.802C140.255 119.568 137.439 116.862 134.073 116.862C130.685 116.862 127.847 119.568 127.847 122.802C127.847 126.036 130.685 128.764 134.073 128.764ZM134.073 126.058C132.357 126.058 130.927 124.562 130.927 122.802C130.927 121.042 132.357 119.568 134.073 119.568C135.767 119.568 137.197 121.042 137.197 122.802C137.197 124.562 135.767 126.058 134.073 126.058ZM145.641 119.238V117.126H142.429V128.5H145.641V123.066C145.641 120.932 147.159 119.568 149.535 119.568V116.862C147.797 116.862 146.389 117.764 145.641 119.238ZM156.47 116.862C154.886 116.862 153.324 117.302 151.718 118.116L152.796 120.25C153.698 119.788 154.688 119.436 155.744 119.436C157.614 119.436 158.362 120.492 158.362 121.702V121.922C157.394 121.548 156.382 121.35 155.458 121.35C152.818 121.35 150.728 122.89 150.728 125.134C150.728 127.312 152.598 128.764 155.018 128.764C156.25 128.764 157.548 128.28 158.362 127.356V128.5H161.464V121.702C161.464 118.732 159.44 116.862 156.47 116.862ZM155.744 126.542C154.644 126.542 153.83 125.97 153.83 125.046C153.83 124.122 154.754 123.44 155.92 123.44C156.8 123.44 157.636 123.594 158.362 123.858V124.914C158.142 125.97 156.976 126.542 155.744 126.542ZM170.155 125.684C169.935 125.904 169.495 126.058 169.055 126.058C168.461 126.058 167.977 125.53 167.977 124.782V119.722H170.441V117.126H167.977V114.002H164.897V117.126H163.335V119.722H164.897V125.288C164.897 127.334 166.305 128.764 168.307 128.764C169.231 128.764 170.265 128.368 170.925 127.774L170.155 125.684ZM178.305 125.926C176.963 125.926 175.973 125.09 175.599 123.858H183.805C183.805 119.568 181.715 116.862 178.151 116.862C174.829 116.862 172.299 119.348 172.299 122.78C172.299 126.278 174.939 128.764 178.327 128.764C179.999 128.764 181.957 128.06 182.969 127.004L180.923 124.914C180.307 125.508 179.207 125.926 178.305 125.926ZM178.283 119.7C179.581 119.7 180.417 120.426 180.725 121.548H175.643C176.061 120.404 177.073 119.7 178.283 119.7Z" fill="#363940"/>
<path d="M78.8273 159.654C81.0953 159.654 82.3273 158.422 82.3273 156.798C82.3273 155.076 80.9973 154.432 79.0793 153.984C77.4973 153.606 76.6713 153.298 76.6713 152.402C76.6713 151.632 77.4273 150.946 78.5053 150.946C79.4853 150.946 80.4513 151.38 81.2633 152.122L82.0753 151.058C81.1513 150.246 80.0453 149.7 78.5613 149.7C76.6293 149.7 75.2293 150.918 75.2293 152.528C75.2293 154.264 76.5313 154.852 78.4913 155.314C80.1013 155.678 80.8993 156.028 80.8993 156.938C80.8993 157.708 80.2133 158.408 78.8833 158.408C77.5813 158.408 76.5733 157.876 75.7193 157.064L74.8653 158.114C75.8873 159.094 77.2173 159.654 78.8273 159.654ZM87.3409 158.436C86.0949 158.436 85.2129 157.568 85.0309 156.364H90.7289C90.7289 153.774 89.4549 152.094 87.2429 152.094C85.2409 152.094 83.6309 153.69 83.6309 155.86C83.6309 158.086 85.3389 159.668 87.3549 159.668C88.3769 159.668 89.6369 159.234 90.2809 158.548L89.4129 157.652C88.9789 158.1 88.0969 158.436 87.3409 158.436ZM87.2989 153.326C88.5449 153.326 89.2309 154.138 89.3849 155.258H85.0449C85.2689 154.082 86.1789 153.326 87.2989 153.326ZM95.7234 158.198C95.5694 158.352 95.2894 158.464 94.9814 158.464C94.5754 158.464 94.2394 158.1 94.2394 157.596V153.438H95.9474V152.262H94.2394V150.274H92.8814V152.262H91.7894V153.438H92.8814V157.694C92.8814 158.856 93.6654 159.668 94.7854 159.668C95.3034 159.668 95.8354 159.472 96.2274 159.15L95.7234 158.198ZM101.028 158.198C100.874 158.352 100.594 158.464 100.286 158.464C99.8801 158.464 99.5441 158.1 99.5441 157.596V153.438H101.252V152.262H99.5441V150.274H98.1861V152.262H97.0941V153.438H98.1861V157.694C98.1861 158.856 98.9701 159.668 100.09 159.668C100.608 159.668 101.14 159.472 101.532 159.15L101.028 158.198ZM103.631 151.058C104.079 151.058 104.457 150.666 104.457 150.218C104.457 149.784 104.079 149.392 103.631 149.392C103.155 149.392 102.791 149.784 102.791 150.218C102.791 150.666 103.155 151.058 103.631 151.058ZM102.931 159.5H104.317V152.262H102.931V159.5ZM110.004 152.094C109.024 152.094 108.142 152.598 107.708 153.312V152.262H106.322V159.5H107.708V154.81C107.82 153.956 108.688 153.298 109.696 153.298C110.676 153.298 111.362 154.054 111.362 155.132V159.5H112.72V154.894C112.72 153.256 111.6 152.094 110.004 152.094ZM120.205 152.262V153.424C119.659 152.612 118.735 152.094 117.643 152.094C115.739 152.094 114.353 153.508 114.353 155.524C114.353 157.54 115.739 158.968 117.643 158.968C118.735 158.968 119.631 158.478 120.205 157.652V158.702C120.205 159.962 119.267 160.704 117.713 160.704C116.845 160.704 115.977 160.41 115.445 159.906L114.899 160.942C115.585 161.502 116.705 161.908 117.923 161.908C120.065 161.908 121.591 160.592 121.591 158.73V152.262H120.205ZM117.993 157.764C116.705 157.764 115.795 156.84 115.795 155.524C115.795 154.222 116.705 153.298 117.993 153.298C119.281 153.298 120.205 154.222 120.205 155.524C120.205 156.84 119.281 157.764 117.993 157.764ZM131.052 158.198C130.898 158.352 130.618 158.464 130.31 158.464C129.904 158.464 129.568 158.1 129.568 157.596V153.438H131.276V152.262H129.568V150.274H128.21V152.262H127.118V153.438H128.21V157.694C128.21 158.856 128.994 159.668 130.114 159.668C130.632 159.668 131.164 159.472 131.556 159.15L131.052 158.198ZM136.65 152.094C135.656 152.094 134.774 152.612 134.34 153.34V149.714H132.968V159.5H134.34V155.006C134.34 154.068 135.25 153.298 136.342 153.298C137.322 153.298 138.008 154.054 138.008 155.132V159.5H139.366V154.894C139.366 153.256 138.246 152.094 136.65 152.094ZM144.667 158.436C143.421 158.436 142.539 157.568 142.357 156.364H148.055C148.055 153.774 146.781 152.094 144.569 152.094C142.567 152.094 140.957 153.69 140.957 155.86C140.957 158.086 142.665 159.668 144.681 159.668C145.703 159.668 146.963 159.234 147.607 158.548L146.739 157.652C146.305 158.1 145.423 158.436 144.667 158.436ZM144.625 153.326C145.871 153.326 146.557 154.138 146.711 155.258H142.371C142.595 154.082 143.505 153.326 144.625 153.326ZM156.285 159.668C157.867 159.668 159.029 158.8 159.029 157.428C159.029 155.986 157.755 155.594 156.565 155.244C155.347 154.866 154.899 154.698 154.899 154.138C154.899 153.592 155.459 153.284 156.173 153.284C156.803 153.284 157.531 153.522 158.231 153.956L158.847 152.934C158.063 152.416 157.111 152.094 156.173 152.094C154.633 152.094 153.527 152.962 153.541 154.292C153.541 155.468 154.367 155.944 156.033 156.406C156.929 156.658 157.671 156.868 157.671 157.54C157.671 158.1 157.111 158.478 156.299 158.478C155.445 158.478 154.619 158.156 153.849 157.596L153.191 158.59C154.059 159.29 155.221 159.668 156.285 159.668ZM164.028 158.198C163.874 158.352 163.594 158.464 163.286 158.464C162.88 158.464 162.544 158.1 162.544 157.596V153.438H164.252V152.262H162.544V150.274H161.186V152.262H160.094V153.438H161.186V157.694C161.186 158.856 161.97 159.668 163.09 159.668C163.608 159.668 164.14 159.472 164.532 159.15L164.028 158.198ZM168.983 152.094C168.185 152.094 167.275 152.304 166.239 152.822L166.743 153.844C167.373 153.522 168.073 153.242 168.787 153.242C170.229 153.242 170.649 154.208 170.649 155.118V155.342C169.949 155.104 169.179 154.95 168.465 154.95C166.869 154.95 165.567 155.916 165.567 157.358C165.567 158.772 166.701 159.668 168.241 159.668C169.123 159.668 170.117 159.262 170.649 158.506V159.5H172.007V155.118C172.007 153.326 170.929 152.094 168.983 152.094ZM168.507 158.576C167.597 158.576 166.897 158.1 166.897 157.316C166.897 156.532 167.709 155.986 168.675 155.986C169.389 155.986 170.061 156.084 170.649 156.266V157.232C170.411 158.128 169.403 158.576 168.507 158.576ZM177.693 152.094C176.713 152.094 175.831 152.598 175.397 153.312V152.262H174.011V159.5H175.397V154.81C175.509 153.956 176.377 153.298 177.385 153.298C178.365 153.298 179.051 154.054 179.051 155.132V159.5H180.409V154.894C180.409 153.256 179.289 152.094 177.693 152.094ZM187.964 149.714V153.508C187.404 152.626 186.508 152.094 185.388 152.094C183.484 152.094 182.056 153.662 182.056 155.874C182.056 158.1 183.484 159.668 185.388 159.668C186.508 159.668 187.404 159.136 187.964 158.24V159.5H189.336V149.714H187.964ZM185.724 158.464C184.394 158.464 183.456 157.386 183.456 155.874C183.456 154.362 184.394 153.298 185.724 153.298C187.026 153.298 187.964 154.362 187.964 155.874C187.964 157.386 187.026 158.464 185.724 158.464ZM194.453 152.094C193.655 152.094 192.745 152.304 191.709 152.822L192.213 153.844C192.843 153.522 193.543 153.242 194.257 153.242C195.699 153.242 196.119 154.208 196.119 155.118V155.342C195.419 155.104 194.649 154.95 193.935 154.95C192.339 154.95 191.037 155.916 191.037 157.358C191.037 158.772 192.171 159.668 193.711 159.668C194.593 159.668 195.587 159.262 196.119 158.506V159.5H197.477V155.118C197.477 153.326 196.399 152.094 194.453 152.094ZM193.977 158.576C193.067 158.576 192.367 158.1 192.367 157.316C192.367 156.532 193.179 155.986 194.145 155.986C194.859 155.986 195.531 156.084 196.119 156.266V157.232C195.881 158.128 194.873 158.576 193.977 158.576ZM200.938 153.648V152.262H199.552V159.5H200.938V155.384C201.064 154.124 202.128 153.298 203.626 153.298V152.094C202.38 152.094 201.4 152.696 200.938 153.648ZM210.55 149.714V153.508C209.99 152.626 209.094 152.094 207.974 152.094C206.07 152.094 204.642 153.662 204.642 155.874C204.642 158.1 206.07 159.668 207.974 159.668C209.094 159.668 209.99 159.136 210.55 158.24V159.5H211.922V149.714H210.55ZM208.31 158.464C206.98 158.464 206.042 157.386 206.042 155.874C206.042 154.362 206.98 153.298 208.31 153.298C209.612 153.298 210.55 154.362 210.55 155.874C210.55 157.386 209.612 158.464 208.31 158.464ZM77.2453 175.464C77.2453 174.96 77.5813 174.596 77.9873 174.596C78.2953 174.596 78.5753 174.708 78.7293 174.862L79.2333 173.938C78.8413 173.616 78.3093 173.42 77.7913 173.42C76.6713 173.42 75.8873 174.232 75.8873 175.394V176.262H74.7953V177.438H75.8873V183.5H77.2453V177.438H78.9533V176.262H77.2453V175.464ZM83.8162 183.668C85.8742 183.668 87.6102 181.932 87.6102 179.874C87.6102 177.816 85.8742 176.094 83.8162 176.094C81.7442 176.094 79.9942 177.816 79.9942 179.874C79.9942 181.932 81.7442 183.668 83.8162 183.668ZM83.8162 182.464C82.4862 182.464 81.3802 181.288 81.3802 179.874C81.3802 178.474 82.4862 177.298 83.8162 177.298C85.1182 177.298 86.2242 178.474 86.2242 179.874C86.2242 181.288 85.1182 182.464 83.8162 182.464ZM90.6879 177.648V176.262H89.3019V183.5H90.6879V179.384C90.8139 178.124 91.8779 177.298 93.3759 177.298V176.094C92.1299 176.094 91.1499 176.696 90.6879 177.648ZM102.122 182.198C101.968 182.352 101.688 182.464 101.38 182.464C100.974 182.464 100.638 182.1 100.638 181.596V177.438H102.346V176.262H100.638V174.274H99.2798V176.262H98.1878V177.438H99.2798V181.694C99.2798 182.856 100.064 183.668 101.184 183.668C101.702 183.668 102.234 183.472 102.626 183.15L102.122 182.198ZM107.721 176.094C106.727 176.094 105.845 176.612 105.411 177.34V173.714H104.039V183.5H105.411V179.006C105.411 178.068 106.321 177.298 107.413 177.298C108.393 177.298 109.079 178.054 109.079 179.132V183.5H110.437V178.894C110.437 177.256 109.317 176.094 107.721 176.094ZM115.737 182.436C114.491 182.436 113.609 181.568 113.427 180.364H119.125C119.125 177.774 117.851 176.094 115.639 176.094C113.637 176.094 112.027 177.69 112.027 179.86C112.027 182.086 113.735 183.668 115.751 183.668C116.773 183.668 118.033 183.234 118.677 182.548L117.809 181.652C117.375 182.1 116.493 182.436 115.737 182.436ZM115.695 177.326C116.941 177.326 117.627 178.138 117.781 179.258H113.441C113.665 178.082 114.575 177.326 115.695 177.326ZM128.756 176.094C127.636 176.094 126.74 176.626 126.18 177.508V173.714H124.808V183.5H126.18V182.24C126.74 183.136 127.636 183.668 128.756 183.668C130.66 183.668 132.088 182.1 132.088 179.874C132.088 177.662 130.66 176.094 128.756 176.094ZM128.42 182.464C127.118 182.464 126.18 181.386 126.18 179.874C126.18 178.362 127.118 177.298 128.42 177.298C129.75 177.298 130.688 178.362 130.688 179.874C130.688 181.386 129.75 182.464 128.42 182.464ZM137.079 182.436C135.833 182.436 134.951 181.568 134.769 180.364H140.467C140.467 177.774 139.193 176.094 136.981 176.094C134.979 176.094 133.369 177.69 133.369 179.86C133.369 182.086 135.077 183.668 137.093 183.668C138.115 183.668 139.375 183.234 140.019 182.548L139.151 181.652C138.717 182.1 137.835 182.436 137.079 182.436ZM137.037 177.326C138.283 177.326 138.969 178.138 139.123 179.258H134.783C135.007 178.082 135.917 177.326 137.037 177.326ZM144.692 183.668C146.274 183.668 147.436 182.8 147.436 181.428C147.436 179.986 146.162 179.594 144.972 179.244C143.754 178.866 143.306 178.698 143.306 178.138C143.306 177.592 143.866 177.284 144.58 177.284C145.21 177.284 145.938 177.522 146.638 177.956L147.254 176.934C146.47 176.416 145.518 176.094 144.58 176.094C143.04 176.094 141.934 176.962 141.948 178.292C141.948 179.468 142.774 179.944 144.44 180.406C145.336 180.658 146.078 180.868 146.078 181.54C146.078 182.1 145.518 182.478 144.706 182.478C143.852 182.478 143.026 182.156 142.256 181.596L141.598 182.59C142.466 183.29 143.628 183.668 144.692 183.668ZM152.434 182.198C152.28 182.352 152 182.464 151.692 182.464C151.286 182.464 150.95 182.1 150.95 181.596V177.438H152.658V176.262H150.95V174.274H149.592V176.262H148.5V177.438H149.592V181.694C149.592 182.856 150.376 183.668 151.496 183.668C152.014 183.668 152.546 183.472 152.938 183.15L152.434 182.198ZM163.019 183.668C164.391 183.668 165.651 183.08 166.561 182.156L165.567 181.204C164.923 181.904 164.013 182.366 163.019 182.366C161.101 182.366 159.477 180.686 159.477 178.684C159.477 176.696 161.101 175.016 163.019 175.016C164.013 175.016 164.923 175.478 165.567 176.178L166.561 175.226C165.651 174.288 164.391 173.714 163.019 173.714C160.317 173.714 158.021 175.982 158.021 178.684C158.021 181.386 160.317 183.668 163.019 183.668ZM171.371 183.668C173.429 183.668 175.165 181.932 175.165 179.874C175.165 177.816 173.429 176.094 171.371 176.094C169.299 176.094 167.549 177.816 167.549 179.874C167.549 181.932 169.299 183.668 171.371 183.668ZM171.371 182.464C170.041 182.464 168.935 181.288 168.935 179.874C168.935 178.474 170.041 177.298 171.371 177.298C172.673 177.298 173.779 178.474 173.779 179.874C173.779 181.288 172.673 182.464 171.371 182.464ZM178.243 177.648V176.262H176.857V183.5H178.243V179.384C178.369 178.124 179.433 177.298 180.931 177.298V176.094C179.685 176.094 178.705 176.696 178.243 177.648ZM186.301 176.094C185.181 176.094 184.285 176.626 183.725 177.508V176.262H182.353V185.908H183.725V182.24C184.285 183.136 185.181 183.668 186.301 183.668C188.205 183.668 189.633 182.1 189.633 179.874C189.633 177.662 188.205 176.094 186.301 176.094ZM185.965 182.464C184.663 182.464 183.725 181.386 183.725 179.874C183.725 178.362 184.663 177.298 185.965 177.298C187.295 177.298 188.233 178.362 188.233 179.874C188.233 181.386 187.295 182.464 185.965 182.464ZM194.736 183.668C196.794 183.668 198.53 181.932 198.53 179.874C198.53 177.816 196.794 176.094 194.736 176.094C192.664 176.094 190.914 177.816 190.914 179.874C190.914 181.932 192.664 183.668 194.736 183.668ZM194.736 182.464C193.406 182.464 192.3 181.288 192.3 179.874C192.3 178.474 193.406 177.298 194.736 177.298C196.038 177.298 197.144 178.474 197.144 179.874C197.144 181.288 196.038 182.464 194.736 182.464ZM201.608 177.648V176.262H200.222V183.5H201.608V179.384C201.734 178.124 202.798 177.298 204.296 177.298V176.094C203.05 176.094 202.07 176.696 201.608 177.648ZM208.686 176.094C207.888 176.094 206.978 176.304 205.942 176.822L206.446 177.844C207.076 177.522 207.776 177.242 208.49 177.242C209.932 177.242 210.352 178.208 210.352 179.118V179.342C209.652 179.104 208.882 178.95 208.168 178.95C206.572 178.95 205.27 179.916 205.27 181.358C205.27 182.772 206.404 183.668 207.944 183.668C208.826 183.668 209.82 183.262 210.352 182.506V183.5H211.71V179.118C211.71 177.326 210.632 176.094 208.686 176.094ZM208.21 182.576C207.3 182.576 206.6 182.1 206.6 181.316C206.6 180.532 207.412 179.986 208.378 179.986C209.092 179.986 209.764 180.084 210.352 180.266V181.232C210.114 182.128 209.106 182.576 208.21 182.576ZM217.102 182.198C216.948 182.352 216.668 182.464 216.36 182.464C215.954 182.464 215.618 182.1 215.618 181.596V177.438H217.326V176.262H215.618V174.274H214.26V176.262H213.168V177.438H214.26V181.694C214.26 182.856 215.044 183.668 216.164 183.668C216.682 183.668 217.214 183.472 217.606 183.15L217.102 182.198ZM222.337 182.436C221.091 182.436 220.209 181.568 220.027 180.364H225.725C225.725 177.774 224.451 176.094 222.239 176.094C220.237 176.094 218.627 177.69 218.627 179.86C218.627 182.086 220.335 183.668 222.351 183.668C223.373 183.668 224.633 183.234 225.277 182.548L224.409 181.652C223.975 182.1 223.093 182.436 222.337 182.436ZM222.295 177.326C223.541 177.326 224.227 178.138 224.381 179.258H220.041C220.265 178.082 221.175 177.326 222.295 177.326ZM80.0033 207.668C81.3753 207.668 82.6353 207.08 83.5453 206.156L82.5513 205.204C81.9073 205.904 80.9973 206.366 80.0033 206.366C78.0853 206.366 76.4613 204.686 76.4613 202.684C76.4613 200.696 78.0853 199.016 80.0033 199.016C80.9973 199.016 81.9073 199.478 82.5513 200.178L83.5453 199.226C82.6353 198.288 81.3753 197.714 80.0033 197.714C77.3013 197.714 75.0053 199.982 75.0053 202.684C75.0053 205.386 77.3013 207.668 80.0033 207.668ZM85.6112 199.058C86.0592 199.058 86.4372 198.666 86.4372 198.218C86.4372 197.784 86.0592 197.392 85.6112 197.392C85.1352 197.392 84.7712 197.784 84.7712 198.218C84.7712 198.666 85.1352 199.058 85.6112 199.058ZM84.9112 207.5H86.2972V200.262H84.9112V207.5ZM91.6902 206.198C91.5362 206.352 91.2562 206.464 90.9482 206.464C90.5422 206.464 90.2062 206.1 90.2062 205.596V201.438H91.9142V200.262H90.2062V198.274H88.8482V200.262H87.7562V201.438H88.8482V205.694C88.8482 206.856 89.6322 207.668 90.7522 207.668C91.2702 207.668 91.8022 207.472 92.1942 207.15L91.6902 206.198ZM94.2929 199.058C94.7409 199.058 95.1189 198.666 95.1189 198.218C95.1189 197.784 94.7409 197.392 94.2929 197.392C93.8169 197.392 93.4529 197.784 93.4529 198.218C93.4529 198.666 93.8169 199.058 94.2929 199.058ZM93.5929 207.5H94.9789V200.262H93.5929V207.5ZM96.6758 207.5H102.584V206.254H98.4958L102.556 201.298V200.262H96.7598V201.508H100.736L96.6758 206.464V207.5ZM107.575 206.436C106.329 206.436 105.447 205.568 105.265 204.364H110.963C110.963 201.774 109.689 200.094 107.477 200.094C105.475 200.094 103.865 201.69 103.865 203.86C103.865 206.086 105.573 207.668 107.589 207.668C108.611 207.668 109.871 207.234 110.515 206.548L109.647 205.652C109.213 206.1 108.331 206.436 107.575 206.436ZM107.533 201.326C108.779 201.326 109.465 202.138 109.619 203.258H105.279C105.503 202.082 106.413 201.326 107.533 201.326ZM116.252 200.094C115.272 200.094 114.39 200.598 113.956 201.312V200.262H112.57V207.5H113.956V202.81C114.068 201.956 114.936 201.298 115.944 201.298C116.924 201.298 117.61 202.054 117.61 203.132V207.5H118.968V202.894C118.968 201.256 117.848 200.094 116.252 200.094ZM123.569 207.668C125.151 207.668 126.313 206.8 126.313 205.428C126.313 203.986 125.039 203.594 123.849 203.244C122.631 202.866 122.183 202.698 122.183 202.138C122.183 201.592 122.743 201.284 123.457 201.284C124.087 201.284 124.815 201.522 125.515 201.956L126.131 200.934C125.347 200.416 124.395 200.094 123.457 200.094C121.917 200.094 120.811 200.962 120.825 202.292C120.825 203.468 121.651 203.944 123.317 204.406C124.213 204.658 124.955 204.868 124.955 205.54C124.955 206.1 124.395 206.478 123.583 206.478C122.729 206.478 121.903 206.156 121.133 205.596L120.475 206.59C121.343 207.29 122.505 207.668 123.569 207.668ZM131.605 200.094C130.611 200.094 129.729 200.612 129.295 201.34V197.714H127.923V207.5H129.295V203.006C129.295 202.068 130.205 201.298 131.297 201.298C132.277 201.298 132.963 202.054 132.963 203.132V207.5H134.321V202.894C134.321 201.256 133.201 200.094 131.605 200.094ZM136.99 199.058C137.438 199.058 137.816 198.666 137.816 198.218C137.816 197.784 137.438 197.392 136.99 197.392C136.514 197.392 136.15 197.784 136.15 198.218C136.15 198.666 136.514 199.058 136.99 199.058ZM136.29 207.5H137.676V200.262H136.29V207.5ZM143.699 200.094C142.579 200.094 141.683 200.626 141.123 201.508V200.262H139.751V209.908H141.123V206.24C141.683 207.136 142.579 207.668 143.699 207.668C145.603 207.668 147.031 206.1 147.031 203.874C147.031 201.662 145.603 200.094 143.699 200.094ZM143.363 206.464C142.061 206.464 141.123 205.386 141.123 203.874C141.123 202.362 142.061 201.298 143.363 201.298C144.693 201.298 145.631 202.362 145.631 203.874C145.631 205.386 144.693 206.464 143.363 206.464ZM153.396 199.058C153.844 199.058 154.222 198.666 154.222 198.218C154.222 197.784 153.844 197.392 153.396 197.392C152.92 197.392 152.556 197.784 152.556 198.218C152.556 198.666 152.92 199.058 153.396 199.058ZM152.696 207.5H154.082V200.262H152.696V207.5ZM159.769 200.094C158.789 200.094 157.907 200.598 157.473 201.312V200.262H156.087V207.5H157.473V202.81C157.585 201.956 158.453 201.298 159.461 201.298C160.441 201.298 161.127 202.054 161.127 203.132V207.5H162.485V202.894C162.485 201.256 161.365 200.094 159.769 200.094ZM171.862 206.198C171.708 206.352 171.428 206.464 171.12 206.464C170.714 206.464 170.378 206.1 170.378 205.596V201.438H172.086V200.262H170.378V198.274H169.02V200.262H167.928V201.438H169.02V205.694C169.02 206.856 169.804 207.668 170.924 207.668C171.442 207.668 171.974 207.472 172.366 207.15L171.862 206.198ZM177.461 200.094C176.467 200.094 175.585 200.612 175.151 201.34V197.714H173.779V207.5H175.151V203.006C175.151 202.068 176.061 201.298 177.153 201.298C178.133 201.298 178.819 202.054 178.819 203.132V207.5H180.177V202.894C180.177 201.256 179.057 200.094 177.461 200.094ZM185.478 206.436C184.232 206.436 183.35 205.568 183.168 204.364H188.866C188.866 201.774 187.592 200.094 185.38 200.094C183.378 200.094 181.768 201.69 181.768 203.86C181.768 206.086 183.476 207.668 185.492 207.668C186.514 207.668 187.774 207.234 188.418 206.548L187.55 205.652C187.116 206.1 186.234 206.436 185.478 206.436ZM185.436 201.326C186.682 201.326 187.368 202.138 187.522 203.258H183.182C183.406 202.082 184.316 201.326 185.436 201.326ZM78.7573 231.668C79.8353 231.668 80.7733 231.22 81.4733 230.506L80.5353 229.652C80.0873 230.156 79.4433 230.464 78.7713 230.464C77.4413 230.464 76.3493 229.288 76.3493 227.874C76.3493 226.474 77.4413 225.298 78.7573 225.298C79.4293 225.298 80.0593 225.592 80.4933 226.082L81.4313 225.214C80.7453 224.528 79.8073 224.094 78.7713 224.094C76.6993 224.094 74.9493 225.816 74.9493 227.874C74.9493 229.932 76.6993 231.668 78.7573 231.668ZM86.2361 231.668C88.2941 231.668 90.0301 229.932 90.0301 227.874C90.0301 225.816 88.2941 224.094 86.2361 224.094C84.1641 224.094 82.4141 225.816 82.4141 227.874C82.4141 229.932 84.1641 231.668 86.2361 231.668ZM86.2361 230.464C84.9061 230.464 83.8001 229.288 83.8001 227.874C83.8001 226.474 84.9061 225.298 86.2361 225.298C87.5381 225.298 88.6441 226.474 88.6441 227.874C88.6441 229.288 87.5381 230.464 86.2361 230.464ZM99.7438 224.094C98.6518 224.094 97.7278 224.654 97.3918 225.55C96.9718 224.654 96.1178 224.094 95.0678 224.094C94.1438 224.094 93.3878 224.556 93.0238 225.27V224.262H91.6378V231.5H93.0238V226.978C93.0238 225.984 93.7518 225.298 94.7878 225.298C95.6978 225.298 96.3278 226.04 96.3278 227.104V231.5H97.6858V226.978C97.6858 225.984 98.4138 225.298 99.4498 225.298C100.36 225.298 100.99 226.04 100.99 227.104V231.5H102.348V226.894C102.348 225.256 101.256 224.094 99.7438 224.094ZM112.431 224.094C111.339 224.094 110.415 224.654 110.079 225.55C109.659 224.654 108.805 224.094 107.755 224.094C106.831 224.094 106.075 224.556 105.711 225.27V224.262H104.325V231.5H105.711V226.978C105.711 225.984 106.439 225.298 107.475 225.298C108.385 225.298 109.015 226.04 109.015 227.104V231.5H110.373V226.978C110.373 225.984 111.101 225.298 112.137 225.298C113.047 225.298 113.677 226.04 113.677 227.104V231.5H115.035V226.894C115.035 225.256 113.943 224.094 112.431 224.094ZM122.011 224.262V228.952C121.899 229.806 121.031 230.464 120.023 230.464C119.043 230.464 118.357 229.708 118.357 228.63V224.262H116.999V228.868C116.999 230.506 118.119 231.668 119.715 231.668C120.695 231.668 121.577 231.164 122.011 230.45V231.5H123.397V224.262H122.011ZM129.09 224.094C128.11 224.094 127.228 224.598 126.794 225.312V224.262H125.408V231.5H126.794V226.81C126.906 225.956 127.774 225.298 128.782 225.298C129.762 225.298 130.448 226.054 130.448 227.132V231.5H131.806V226.894C131.806 225.256 130.686 224.094 129.09 224.094ZM134.475 223.058C134.923 223.058 135.301 222.666 135.301 222.218C135.301 221.784 134.923 221.392 134.475 221.392C133.999 221.392 133.635 221.784 133.635 222.218C133.635 222.666 133.999 223.058 134.475 223.058ZM133.775 231.5H135.161V224.262H133.775V231.5ZM140.553 230.198C140.399 230.352 140.119 230.464 139.811 230.464C139.405 230.464 139.069 230.1 139.069 229.596V225.438H140.777V224.262H139.069V222.274H137.711V224.262H136.619V225.438H137.711V229.694C137.711 230.856 138.495 231.668 139.615 231.668C140.133 231.668 140.665 231.472 141.057 231.15L140.553 230.198ZM143.156 223.058C143.604 223.058 143.982 222.666 143.982 222.218C143.982 221.784 143.604 221.392 143.156 221.392C142.68 221.392 142.316 221.784 142.316 222.218C142.316 222.666 142.68 223.058 143.156 223.058ZM142.456 231.5H143.842V224.262H142.456V231.5ZM149.165 230.436C147.919 230.436 147.037 229.568 146.855 228.364H152.553C152.553 225.774 151.279 224.094 149.067 224.094C147.065 224.094 145.455 225.69 145.455 227.86C145.455 230.086 147.163 231.668 149.179 231.668C150.201 231.668 151.461 231.234 152.105 230.548L151.237 229.652C150.803 230.1 149.921 230.436 149.165 230.436ZM149.123 225.326C150.369 225.326 151.055 226.138 151.209 227.258H146.869C147.093 226.082 148.003 225.326 149.123 225.326ZM156.778 231.668C158.36 231.668 159.522 230.8 159.522 229.428C159.522 227.986 158.248 227.594 157.058 227.244C155.84 226.866 155.392 226.698 155.392 226.138C155.392 225.592 155.952 225.284 156.666 225.284C157.296 225.284 158.024 225.522 158.724 225.956L159.34 224.934C158.556 224.416 157.604 224.094 156.666 224.094C155.126 224.094 154.02 224.962 154.034 226.292C154.034 227.468 154.86 227.944 156.526 228.406C157.422 228.658 158.164 228.868 158.164 229.54C158.164 230.1 157.604 230.478 156.792 230.478C155.938 230.478 155.112 230.156 154.342 229.596L153.684 230.59C154.552 231.29 155.714 231.668 156.778 231.668ZM166.972 231.5H168.246L169.996 226.124L171.732 231.5H173.006L175.442 224.262H174.028L172.376 229.652L170.584 224.262H169.408L167.616 229.652L165.95 224.262H164.536L166.972 231.5ZM179.804 230.436C178.558 230.436 177.676 229.568 177.494 228.364H183.192C183.192 225.774 181.918 224.094 179.706 224.094C177.704 224.094 176.094 225.69 176.094 227.86C176.094 230.086 177.802 231.668 179.818 231.668C180.84 231.668 182.1 231.234 182.744 230.548L181.876 229.652C181.442 230.1 180.56 230.436 179.804 230.436ZM179.762 225.326C181.008 225.326 181.694 226.138 181.848 227.258H177.508C177.732 226.082 178.642 225.326 179.762 225.326ZM190.638 231.5H191.912L193.662 226.124L195.398 231.5H196.672L199.108 224.262H197.694L196.042 229.652L194.25 224.262H193.074L191.282 229.652L189.616 224.262H188.202L190.638 231.5ZM203.636 231.668C205.694 231.668 207.43 229.932 207.43 227.874C207.43 225.816 205.694 224.094 203.636 224.094C201.564 224.094 199.814 225.816 199.814 227.874C199.814 229.932 201.564 231.668 203.636 231.668ZM203.636 230.464C202.306 230.464 201.2 229.288 201.2 227.874C201.2 226.474 202.306 225.298 203.636 225.298C204.938 225.298 206.044 226.474 206.044 227.874C206.044 229.288 204.938 230.464 203.636 230.464ZM210.508 225.648V224.262H209.122V231.5H210.508V227.384C210.634 226.124 211.698 225.298 213.196 225.298V224.094C211.95 224.094 210.97 224.696 210.508 225.648ZM221.128 224.262H219.448L215.906 227.958V221.714H214.534V231.5H215.906V229.638L217.068 228.462L219.336 231.5H220.988L218.006 227.538L221.128 224.262Z" fill="#999999"/>
</g>
<defs>
<filter id="filter0_d_44_38" x="-23.6667" y="-23.5" width="407" height="379" filterUnits="userSpaceOnUse" color-interpolation-filters="sRGB">
<feFlood flood-opacity="0" result="BackgroundImageFix"/>
<feColorMatrix in="SourceAlpha" type="matrix" values="0 0 0 0 0 0 0 0 0 0 0 0 0 0 0 0 0 0 127 0" result="hardAlpha"/>
<feMorphology radius="16" operator="dilate" in="SourceAlpha" result="effect1_dropShadow_44_38"/>
<feOffset dy="18"/>
<feGaussianBlur stdDeviation="29"/>
<feColorMatrix type="matrix" values="0 0 0 0 0 0 0 0 0 0 0 0 0 0 0 0 0 0 0.06 0"/>
<feBlend mode="normal" in2="BackgroundImageFix" result="effect1_dropShadow_44_38"/>
<feBlend mode="normal" in="SourceGraphic" in2="effect1_dropShadow_44_38" result="shape"/>
</filter>
</defs>
</svg>
